<mxfile host="Electron" agent="Mozilla/5.0 (Windows NT 10.0; Win64; x64) AppleWebKit/537.36 (KHTML, like Gecko) draw.io/24.7.8 Chrome/128.0.6613.36 Electron/32.0.1 Safari/537.36" version="24.7.8">
  <diagram name="Page-1" id="lDnA1-wMoaRK79ipEAt8">
    <mxGraphModel dx="802" dy="943" grid="1" gridSize="10" guides="1" tooltips="1" connect="1" arrows="1" fold="1" page="1" pageScale="1" pageWidth="850" pageHeight="1100" math="0" shadow="0">
      <root>
        <mxCell id="0" />
        <mxCell id="1" parent="0" />
        <mxCell id="gLgYP-R_RoO9MK3A_b_7-1" value="End" style="rounded=1;whiteSpace=wrap;html=1;" vertex="1" parent="1">
          <mxGeometry x="290" y="840" width="120" height="60" as="geometry" />
        </mxCell>
        <mxCell id="gLgYP-R_RoO9MK3A_b_7-9" value="" style="edgeStyle=orthogonalEdgeStyle;rounded=0;orthogonalLoop=1;jettySize=auto;html=1;" edge="1" parent="1" source="gLgYP-R_RoO9MK3A_b_7-2" target="gLgYP-R_RoO9MK3A_b_7-3">
          <mxGeometry relative="1" as="geometry" />
        </mxCell>
        <mxCell id="gLgYP-R_RoO9MK3A_b_7-2" value="Start" style="rounded=1;whiteSpace=wrap;html=1;" vertex="1" parent="1">
          <mxGeometry x="290" y="10" width="120" height="60" as="geometry" />
        </mxCell>
        <mxCell id="gLgYP-R_RoO9MK3A_b_7-10" value="" style="edgeStyle=orthogonalEdgeStyle;rounded=0;orthogonalLoop=1;jettySize=auto;html=1;" edge="1" parent="1" source="gLgYP-R_RoO9MK3A_b_7-3" target="gLgYP-R_RoO9MK3A_b_7-4">
          <mxGeometry relative="1" as="geometry" />
        </mxCell>
        <mxCell id="gLgYP-R_RoO9MK3A_b_7-3" value="x(int) = 777" style="rounded=0;whiteSpace=wrap;html=1;" vertex="1" parent="1">
          <mxGeometry x="290" y="140" width="120" height="60" as="geometry" />
        </mxCell>
        <mxCell id="gLgYP-R_RoO9MK3A_b_7-11" value="" style="edgeStyle=orthogonalEdgeStyle;rounded=0;orthogonalLoop=1;jettySize=auto;html=1;" edge="1" parent="1" source="gLgYP-R_RoO9MK3A_b_7-4" target="gLgYP-R_RoO9MK3A_b_7-5">
          <mxGeometry relative="1" as="geometry" />
        </mxCell>
        <mxCell id="gLgYP-R_RoO9MK3A_b_7-4" value="y(int) = 888" style="rounded=0;whiteSpace=wrap;html=1;" vertex="1" parent="1">
          <mxGeometry x="290" y="270" width="120" height="60" as="geometry" />
        </mxCell>
        <mxCell id="gLgYP-R_RoO9MK3A_b_7-12" value="" style="edgeStyle=orthogonalEdgeStyle;rounded=0;orthogonalLoop=1;jettySize=auto;html=1;" edge="1" parent="1" source="gLgYP-R_RoO9MK3A_b_7-5" target="gLgYP-R_RoO9MK3A_b_7-7">
          <mxGeometry relative="1" as="geometry" />
        </mxCell>
        <mxCell id="gLgYP-R_RoO9MK3A_b_7-5" value="z(int) = 999" style="rounded=0;whiteSpace=wrap;html=1;" vertex="1" parent="1">
          <mxGeometry x="290" y="400" width="120" height="60" as="geometry" />
        </mxCell>
        <mxCell id="gLgYP-R_RoO9MK3A_b_7-13" value="" style="edgeStyle=orthogonalEdgeStyle;rounded=0;orthogonalLoop=1;jettySize=auto;html=1;" edge="1" parent="1" source="gLgYP-R_RoO9MK3A_b_7-7" target="gLgYP-R_RoO9MK3A_b_7-8">
          <mxGeometry relative="1" as="geometry" />
        </mxCell>
        <mxCell id="gLgYP-R_RoO9MK3A_b_7-7" value="result(int) = x*y+z" style="rounded=0;whiteSpace=wrap;html=1;" vertex="1" parent="1">
          <mxGeometry x="290" y="540" width="120" height="60" as="geometry" />
        </mxCell>
        <mxCell id="gLgYP-R_RoO9MK3A_b_7-14" value="" style="edgeStyle=orthogonalEdgeStyle;rounded=0;orthogonalLoop=1;jettySize=auto;html=1;" edge="1" parent="1" source="gLgYP-R_RoO9MK3A_b_7-8" target="gLgYP-R_RoO9MK3A_b_7-1">
          <mxGeometry relative="1" as="geometry" />
        </mxCell>
        <mxCell id="gLgYP-R_RoO9MK3A_b_7-8" value="print(result)" style="shape=document;whiteSpace=wrap;html=1;boundedLbl=1;" vertex="1" parent="1">
          <mxGeometry x="290" y="680" width="120" height="80" as="geometry" />
        </mxCell>
      </root>
    </mxGraphModel>
  </diagram>
</mxfile>
